<svg width="18" height="13" viewBox="0 0 18 13" fill="none" xmlns="http://www.w3.org/2000/svg">
<path d="M2.69326 11C1.94513 11 1.30922 10.6995 0.785533 10.0985C0.261844 9.49756 0 8.76781 0 7.90927V4.81854C0 4.52663 0.0861843 4.28212 0.258553 4.085C0.430921 3.88788 0.643987 3.78898 0.897752 3.78829H11.6932C11.768 3.22166 11.97 2.71512 12.2992 2.26868C12.6284 1.82224 13.0324 1.50459 13.5112 1.31571L16.8104 0.0536585C17.0498 -0.0321952 17.2817 -0.0150243 17.5062 0.105171C17.7306 0.225366 17.8802 0.422829 17.955 0.697561C18.0299 0.972293 18.0113 1.23844 17.8994 1.496C17.7875 1.75356 17.6115 1.92527 17.3715 2.01112L14.0723 3.27317C13.8927 3.34185 13.7467 3.46651 13.6342 3.64715C13.5216 3.82779 13.4657 4.02937 13.4663 4.2519V7.90927C13.4663 8.76781 13.2044 9.49756 12.6807 10.0985C12.1571 10.6995 11.5212 11 10.773 11H2.69326Z" fill="#D5D5D5"/>
</svg>
